# xmcd
#
# Track frame offsets:
# 150
# 8907
# 25366
# 42912
# 55382
# 70583
# 85231
# 98951
# 123174
# 142989
# 156762
# 179378
# 195455
#
# Disc length: 2881 seconds
#
# Revision: 0
# Processed by: cddbd v1.4PL0 Copyright (c) Steve Scherf et al.
# Submitted via: Axialis_AX_CDPlayer 2.6
#
DISCID=a60b3f0d
DTITLE=Commander Cody and His Lost Planet Airmen - The best of Commander Cod
DTITLE=y \n(Live 2003)
DYEAR=1900
DGENRE=
TTITLE0=Battle of New Orleans
TTITLE1=Smoke
TTITLE2=Ubangi stomp
TTITLE3=It should have been me
TTITLE4=Down to seeds
TTITLE5=Big mamou
TTITLE6=Cold country blues
TTITLE7=San Antonio Rose
TTITLE8=House of blue lights
TTITLE9=Truck driving man
TTITLE10=Beat me daddy eight to the bar
TTITLE11=There's a riot going on
TTITLE12=Hot Rod Lincoln
EXTD=
EXTT0=
EXTT1=
EXTT2=
EXTT3=
EXTT4=
EXTT5=
EXTT6=
EXTT7=
EXTT8=
EXTT9=
EXTT10=
EXTT11=
EXTT12=
PLAYORDER=
